<svg xmlns="http://www.w3.org/2000/svg" width="22.926" height="24.617" viewBox="0 0 22.926 24.617"><defs><style>.a{fill:#49a760;}.a,.b{fill-rule:evenodd;}.b{fill:#f7c35f;}</style></defs><g transform="translate(-31.932 -28.862)"><path class="a" d="M51.209,28.862c.611.219.785,1.034-.239,2.025a5.829,5.829,0,0,1-.764.611,2.6,2.6,0,0,0-1.13.238,7.072,7.072,0,0,0-1.581.969,19.366,19.366,0,0,1,1.527-1.849c.2-.205.5-.483,1.293-1.27-1.3,1.686-1.01,1.31-1.69,2.179A7.458,7.458,0,0,0,50.539,30.5c.691-.669.836-1.258.67-1.637"/><path class="a" d="M49.912,32.374c-2.4.645-2.935.915-4,2.805a6.9,6.9,0,0,1,1.45-.868c2.248-.935,2.669,1.1.8,1.88a4.929,4.929,0,0,1-1.084.292c1.081-.015,1.22,1.328-.108,2.15a5.141,5.141,0,0,1-1.171.508c1.034-.083,1.289,1.212.073,2.155a6.572,6.572,0,0,1-2.627,1.084c.452-1.078,1.716-1.8,2.638-2.544-1.329.754-2.892,1.49-3.151,3.093q-.206.7-.388,1.414a7.232,7.232,0,0,1,1.224-1.659c1.752-1.68,2.89.065,1.43,1.465a5.43,5.43,0,0,1-1.237.846c1.019-.309,1.536.928.513,2.093a5.581,5.581,0,0,1-1.283,1.023c1.1-.588,1.819.678.823,1.977a6.513,6.513,0,0,1-2.342,1.744,10.856,10.856,0,0,1,2.044-3.1,9.484,9.484,0,0,0-2.181,2.61,3.767,3.767,0,0,0-.37,1.894q.254.054.513.1c4.047-5.289,9.8-10.728,11.662-9.969,1.148.468.91,2.345.224,4.358A11.313,11.313,0,0,0,50.986,33.59c.677-.595.651-1.388.005-1.632.218.49-.132,1.248-1.118,1.659a6.6,6.6,0,0,1-2.772.366,11.471,11.471,0,0,1,2.811-1.608"/><path class="a" d="M48.374,34.937a8.67,8.67,0,0,0-2.8,1.634,7.2,7.2,0,0,0,1.146-.038,2.958,2.958,0,0,0-.838.372,7.1,7.1,0,0,0-1.431,1.237c1-2.3,1.247-2.551,3.928-3.205"/><path class="a" d="M43.931,46.1a10.1,10.1,0,0,0-2.069,2.56,6.21,6.21,0,0,0,1.01-.479,2.851,2.851,0,0,0-.7.675,7.341,7.341,0,0,0-1.025,2.019c.287-2.659.268-2.938,2.783-4.774"/><path class="a" d="M41.866,46.334a6.054,6.054,0,0,1,.145-.634l.03-.131h.01c.412-1.281,1.218-1.864,2.6-2.639-1.133.958-1.886,1.435-2.249,2.591.116-.027.247-.066.39-.115.17-.058.356-.131.548-.216a3.059,3.059,0,0,0-.626.558,7.211,7.211,0,0,0-1.077,1.758q.106-.572.226-1.146a.22.22,0,0,1,0-.028"/><path class="a" d="M46.9,37a10.631,10.631,0,0,0-2.585,2.431,6.508,6.508,0,0,0,.956-.151,3.162,3.162,0,0,0-.668.408,7.056,7.056,0,0,0-1.28,1.363C44.1,38.771,44.38,38.3,46.9,37"/><path class="a" d="M51.927,49.7a11.437,11.437,0,0,1-5.082,3.254,11.735,11.735,0,0,1-1.254.318c1.6-2.606,4.282-6.485,6.7-8.159.179-.031.3.011.343.138.321.934-.083,2.771-.711,4.448"/><path class="a" d="M44.643,53.421q-.37.041-.739.058a63.174,63.174,0,0,1,4.886-5.736c.4-.4.793-.776,1.175-1.109a41.648,41.648,0,0,0-5.323,6.787"/><path class="b" d="M46.021,33.384a5.6,5.6,0,0,0,.446-2.675c.616,2.183-.3,2.994-1.218,4.688A7.258,7.258,0,0,0,45.8,33.31a3.6,3.6,0,0,0,.008-.46,4.974,4.974,0,0,0,.211.534"/><path class="b" d="M44.44,36.2a12.393,12.393,0,0,0,.241-3.88c.526,3.051.417,3.151-.612,5.493a6.73,6.73,0,0,0,.1-1.652c-.2-2.408-2.216-1.84-2.051.166a6.432,6.432,0,0,0,1.011,2.7,8.874,8.874,0,0,0-.2-3.258c.964,2.67.663,3.007-.041,5.053a6.774,6.774,0,0,0-.069-1.69c-.453-2.374-2.4-1.6-2.021.379a6.439,6.439,0,0,0,1.3,2.583,9.39,9.39,0,0,0-.521-3.43c.551,1.135,1.235,2.873.68,4.152q-.146.5-.281,1.009a6.561,6.561,0,0,0-.241-1.512c-.7-2.314-2.555-1.341-1.97.587a6.478,6.478,0,0,0,1.475,2.348,11.443,11.443,0,0,0-.624-3.154,6.925,6.925,0,0,1,.937,3.423l0,0-.015.064a2.138,2.138,0,0,1-.057.256q-.132.6-.248,1.2a6.576,6.576,0,0,0-.373-1.508c-.9-2.246-2.661-1.119-1.912.752a6.486,6.486,0,0,0,1.629,2.177,7.234,7.234,0,0,0-.852-2.778c1.44,1.956,1.256,2.546,1.023,4.414a6.394,6.394,0,0,0-.443-1.34c-1.047-2.182-2.73-.943-1.858.876A6.5,6.5,0,0,0,40.228,51.7a8.6,8.6,0,0,0-1.24-3.127,6.22,6.22,0,0,1,1.568,2.973,9.506,9.506,0,0,1-.068,1.578,11.614,11.614,0,0,1-2.7-1.072c.638-6.848-.08-15.183-2.042-15.894-1.211-.439-2.768,2.116-3.791,4.7A11.405,11.405,0,0,1,39.9,31.264a11.529,11.529,0,0,1,5.552-.346,5.846,5.846,0,0,0,.122,1.053c-.517-.833-1.7-.319-1.825,1.177a6.168,6.168,0,0,0,.69,3.055"/><path class="b" d="M47.309,29.429a2.272,2.272,0,0,1,.206,1.305,6.8,6.8,0,0,1-.391,1.672q.231-.316.47-.619a4.32,4.32,0,0,1,.363-1.046c-.018-.759-.3-1.183-.649-1.312"/><path class="b" d="M35.967,50.807c.014-.477.02-1.076.014-1.827,0-.458.151-6.148-.536-8.653-.244-.89-.651-1.344-1.138-1.061.53-.1.745.633.855,1.047.755,2.838.4,7.561.257,10.005q.267.253.549.489"/><path class="b" d="M34.662,49.527c.259-2.747.624-6.605.133-9.34-.114-.636-.467-.853-.842-.611a15.163,15.163,0,0,0-2.02,3.52,11.363,11.363,0,0,0,2.73,6.432"/></g></svg>